<svg data-v-423bf9ae="" xmlns="http://www.w3.org/2000/svg" viewBox="0 0 448.5229179358375 60" class="font"><!----><!----><!----><g data-v-423bf9ae="" id="ed370ff7-38ec-42d1-99d5-728d69f6b54c" fill="white" transform="matrix(5.093378723266456,0,0,5.093378723266456,0.2037288293199424,-18.539899802262326)"><path d="M4.66 12.73L4.55 12.59L1.56 5.58L0.93 4.33L-0.04 3.96L-0.04 3.64L3.71 3.64L3.69 3.96L2.78 4.38L3.10 5.41L5.33 10.75L7.56 5.50L7.88 4.39L6.78 3.96L6.78 3.64L9.87 3.64L9.86 3.95L8.86 4.25L8.18 5.54L5.22 12.28L4.66 12.73ZM10.69 9.82L10.61 9.72L10.80 9.06L14.34 8.90L14.40 8.97L14.21 9.67L10.69 9.82ZM14.81 12.61L14.79 12.32L15.72 11.99L16.35 10.84L19.35 4.05L19.85 3.64L19.99 3.66L23.38 11.80L24.46 12.30L24.46 12.61L20.85 12.61L20.85 12.32L21.68 12.11L21.81 11.85L20.85 9.37L20.74 9.28L17.71 9.31L17.58 9.39L16.98 10.87L16.69 11.89L17.76 12.30L17.77 12.61L14.81 12.61ZM17.94 8.76L20.47 8.76L20.55 8.63L19.25 5.51L17.86 8.64L17.94 8.76ZM24.94 12.61L24.94 12.33L25.88 12.10L25.99 10.90L25.99 8.75L25.88 7.78L24.92 7.52L24.92 7.25L27.34 6.62L27.49 6.78L27.37 7.55L27.45 7.74Q27.81 7.36 28.38 6.99Q28.94 6.63 29.54 6.63L29.54 6.63Q30.31 6.63 30.71 6.94Q31.12 7.25 31.27 7.87Q31.42 8.49 31.42 9.56L31.42 9.56L31.42 10.90L31.51 12.10L32.47 12.33L32.47 12.61L29.11 12.61L29.11 12.33L29.94 12.10L30.04 10.90L30.04 9.53Q30.04 8.49 29.76 7.97Q29.49 7.45 28.78 7.45L28.78 7.45L27.37 8.27L27.37 10.90L27.47 12.10L28.34 12.33L28.34 12.61L24.94 12.61ZM36.41 12.70Q35.46 12.70 34.73 12.30Q34.00 11.91 33.60 11.22Q33.20 10.53 33.20 9.67L33.20 9.67Q33.20 8.80 33.62 8.09Q34.04 7.38 34.77 6.97Q35.51 6.55 36.38 6.55L36.38 6.55Q37.32 6.55 38.06 6.94Q38.80 7.33 39.21 8.02Q39.62 8.71 39.62 9.56L39.62 9.56Q39.62 10.42 39.19 11.14Q38.76 11.85 38.02 12.28Q37.28 12.70 36.41 12.70L36.41 12.70ZM36.54 12.32Q37.37 12.32 37.71 11.59Q38.05 10.87 38.05 9.87L38.05 9.87Q38.05 9.19 37.84 8.50Q37.64 7.82 37.23 7.37Q36.82 6.92 36.24 6.92L36.24 6.92Q35.42 6.92 35.09 7.64Q34.75 8.37 34.75 9.39L34.75 9.39Q34.75 10.08 34.95 10.75Q35.15 11.43 35.56 11.87Q35.97 12.32 36.54 12.32L36.54 12.32ZM40.66 12.61L40.66 12.33L41.60 12.10L41.71 10.90L41.71 8.75L41.60 7.78L40.65 7.52L40.65 7.25L43.07 6.62L43.22 6.78L43.09 7.55L43.18 7.74Q43.53 7.36 44.10 6.99Q44.67 6.63 45.27 6.63L45.27 6.63Q46.03 6.63 46.44 6.94Q46.84 7.25 46.99 7.87Q47.14 8.49 47.14 9.56L47.14 9.56L47.14 10.90L47.24 12.10L48.19 12.33L48.19 12.61L44.83 12.61L44.83 12.33L45.66 12.10L45.76 10.90L45.76 9.53Q45.76 8.49 45.49 7.97Q45.21 7.45 44.50 7.45L44.50 7.45L43.09 8.27L43.09 10.90L43.19 12.10L44.06 12.33L44.06 12.61L40.66 12.61ZM49.78 15.42L48.14 15.01L48.92 13.74L49.96 14.56Q50.30 14.37 50.69 13.81Q51.08 13.25 51.38 12.43L51.38 12.43L49 7.48L48.13 7.08L48.13 6.77L51.38 6.77L51.34 7.08L50.56 7.38L52.17 10.96L53.44 8.05L53.59 7.49L52.64 7.08L52.64 6.77L55.33 6.77L55.32 7.08L54.25 7.53L51.94 12.43Q51.60 13.18 51.34 13.64Q51.09 14.10 50.74 14.56L50.74 14.56L49.78 15.42ZM55.81 12.61L55.81 12.33L56.75 12.10L56.86 10.90L56.86 8.79L56.75 7.78L55.79 7.52L55.79 7.25L58.21 6.62L58.38 6.78L58.26 7.53L58.34 7.68Q58.95 7.18 59.50 6.90Q60.05 6.63 60.44 6.63L60.44 6.63Q61.20 6.63 61.56 6.90Q61.93 7.18 62.15 7.83L62.15 7.83Q62.77 7.29 63.40 6.96Q64.04 6.63 64.49 6.63L64.49 6.63Q65.27 6.63 65.68 6.94Q66.09 7.25 66.25 7.87Q66.40 8.49 66.40 9.56L66.40 9.56L66.40 10.90L66.49 12.10L67.43 12.33L67.43 12.61L64.20 12.61L64.20 12.33L64.89 12.10L65.00 10.90L65.00 9.47Q65.00 8.80 64.90 8.37Q64.80 7.94 64.48 7.67Q64.15 7.40 63.48 7.40L63.48 7.40L62.23 8.29Q62.28 8.65 62.28 9.01L62.28 9.01L62.30 9.47L62.30 10.90L62.40 12.10L63.33 12.33L63.33 12.61L60.12 12.61L60.12 12.33L60.83 12.10L60.92 10.90L60.92 9.52Q60.92 8.80 60.81 8.35Q60.70 7.90 60.38 7.64Q60.05 7.38 59.40 7.38L59.40 7.38L58.26 8.27L58.26 10.90L58.35 12.10L59.24 12.33L59.24 12.61L55.81 12.61ZM71.38 12.70Q70.44 12.70 69.71 12.30Q68.97 11.91 68.57 11.22Q68.17 10.53 68.17 9.67L68.17 9.67Q68.17 8.80 68.59 8.09Q69.02 7.38 69.75 6.97Q70.48 6.55 71.35 6.55L71.35 6.55Q72.30 6.55 73.04 6.94Q73.77 7.33 74.18 8.02Q74.59 8.71 74.59 9.56L74.59 9.56Q74.59 10.42 74.16 11.14Q73.73 11.85 72.99 12.28Q72.26 12.70 71.38 12.70L71.38 12.70ZM71.52 12.32Q72.34 12.32 72.68 11.59Q73.02 10.87 73.02 9.87L73.02 9.87Q73.02 9.19 72.82 8.50Q72.61 7.82 72.20 7.37Q71.79 6.92 71.22 6.92L71.22 6.92Q70.40 6.92 70.06 7.64Q69.73 8.37 69.73 9.39L69.73 9.39Q69.73 10.08 69.92 10.75Q70.12 11.43 70.53 11.87Q70.94 12.32 71.52 12.32L71.52 12.32ZM80.42 12.70L80.31 12.50L80.31 12.06L80.23 11.91Q79.83 12.25 79.24 12.47Q78.65 12.69 78.16 12.69L78.16 12.69Q77.15 12.69 76.77 12.18Q76.38 11.68 76.38 10.66L76.38 10.66L76.38 8.60L76.25 7.60L75.36 7.33L75.36 7.04L77.72 6.55L77.89 6.75L77.77 7.62L77.77 10.27Q77.77 11.01 77.89 11.38Q78.01 11.76 78.29 11.89Q78.57 12.03 79.12 12.03L79.12 12.03L80.31 11.32L80.31 8.60L80.19 7.60L79.32 7.33L79.35 7.04L81.68 6.55L81.84 6.75L81.70 7.60L81.70 10.95L81.83 11.77L82.62 11.98L82.65 12.09L82.56 12.28L80.42 12.70ZM85.46 12.74L83.78 12.48L83.62 10.99L83.95 10.99L84.59 11.98Q85.08 12.32 85.64 12.32L85.64 12.32Q86.11 12.32 86.39 12.07Q86.67 11.83 86.67 11.42L86.67 11.42Q86.67 10.96 86.36 10.71Q86.05 10.46 85.41 10.16L85.41 10.16L84.94 9.93Q84.26 9.56 83.93 9.24Q83.60 8.93 83.60 8.39L83.60 8.39Q83.60 7.85 83.96 7.44Q84.31 7.04 84.88 6.84Q85.44 6.63 86.02 6.63L86.02 6.63L87.57 6.85L87.80 8.31L87.47 8.31L86.93 7.42Q86.53 7.05 85.97 7.05L85.97 7.05Q85.49 7.05 85.21 7.27Q84.93 7.49 84.93 7.89L84.93 7.89Q84.93 8.23 85.25 8.48Q85.57 8.72 85.93 8.90Q86.30 9.08 86.41 9.13L86.41 9.13Q86.97 9.42 87.26 9.60Q87.55 9.79 87.79 10.11Q88.02 10.43 88.02 10.88L88.02 10.88Q88.02 11.76 87.28 12.25Q86.54 12.74 85.46 12.74L85.46 12.74Z"></path></g><!----><!----></svg>